<?xml version="1.0" standalone="no"?>
<!DOCTYPE svg PUBLIC "-//W3C//DTD SVG 20010904//EN"
 "http://www.w3.org/TR/2001/REC-SVG-20010904/DTD/svg10.dtd">
<svg version="1.0" xmlns="http://www.w3.org/2000/svg"
 width="338.000000pt" height="272.000000pt" viewBox="0 0 338.000000 272.000000"
 preserveAspectRatio="xMidYMid meet">

<g transform="translate(0.000000,272.000000) scale(0.100000,-0.100000)"
fill="#000000" stroke="none">
<path d="M0 1360 l0 -1360 1690 0 1690 0 0 1360 0 1360 -1690 0 -1690 0 0
-1360z m1310 811 c169 -60 273 -177 299 -338 17 -108 -3 -222 -52 -301 -28
-43 -97 -108 -133 -124 -13 -6 -24 -14 -24 -17 0 -3 23 -17 51 -31 61 -30 147
-119 177 -183 102 -218 14 -483 -199 -597 -116 -61 -123 -62 -592 -67 -330 -4
-431 -2 -442 7 -13 11 -15 120 -15 840 0 455 4 830 8 834 3 4 198 6 432 4 413
-4 427 -4 490 -27z m1458 -173 l-3 -103 -410 0 -410 0 -3 89 c-2 49 -1 95 2
103 4 10 84 13 416 13 l411 0 -3 -102z m-293 -273 c212 -41 363 -170 432 -370
34 -99 43 -151 43 -245 l0 -90 -412 0 c-227 0 -419 -4 -426 -9 -11 -7 -10 -18
3 -65 55 -190 315 -250 456 -105 l48 50 158 -3 158 -3 -3 -23 c-4 -40 -61
-144 -105 -193 -42 -46 -136 -113 -192 -138 -187 -82 -429 -65 -596 41 -119
77 -215 216 -258 374 -6 23 -11 94 -11 158 0 116 10 183 35 241 39 90 55 122
72 142 10 12 34 40 53 63 45 55 165 134 232 153 138 41 192 45 313 22z"/>
<path d="M720 1710 l0 -200 178 0 c174 0 230 8 294 41 105 54 118 248 21 317
-49 35 -102 42 -300 42 l-193 0 0 -200z"/>
<path d="M720 1016 l0 -216 200 0 c227 0 281 8 333 51 54 44 69 81 70 164 0
63 -3 78 -29 116 -19 29 -46 52 -79 69 -48 24 -59 25 -272 28 l-223 4 0 -216z"/>
<path d="M2283 1456 c-92 -30 -154 -92 -168 -170 l-7 -36 246 0 247 0 -7 38
c-13 74 -52 123 -121 154 -58 25 -137 31 -190 14z"/>
</g>
</svg>
