<?xml version="1.0" standalone="no"?>
<!DOCTYPE svg PUBLIC "-//W3C//DTD SVG 20010904//EN"
 "http://www.w3.org/TR/2001/REC-SVG-20010904/DTD/svg10.dtd">
<svg version="1.0" xmlns="http://www.w3.org/2000/svg"
 width="326.000000pt" height="328.000000pt" viewBox="0 0 326.000000 328.000000"
 preserveAspectRatio="xMidYMid meet">

<g transform="translate(0.000000,328.000000) scale(0.100000,-0.100000)"
fill="#000000" stroke="none">
<path d="M12 3268 c-9 -9 -12 -387 -12 -1640 l0 -1628 1630 0 1630 0 0 1640 0
1640 -1618 0 c-1245 0 -1621 -3 -1630 -12z m1468 -15 c55 -5 75 -9 56 -13 -54
-10 -42 -29 21 -32 45 -2 33 -5 -59 -12 -84 -6 -118 -12 -118 -21 0 -7 -10
-15 -22 -18 -23 -5 -77 -23 -113 -38 -54 -23 -114 -39 -127 -34 -8 3 -36 -6
-63 -20 -27 -15 -78 -35 -114 -47 -36 -11 -75 -24 -86 -28 -11 -4 -40 -15 -65
-25 -25 -9 -63 -26 -86 -36 -23 -10 -50 -19 -60 -19 -23 0 -84 -36 -101 -59
-9 -13 -14 -13 -24 -4 -10 10 -6 15 16 23 21 8 25 14 17 22 -9 9 -16 8 -29 -4
-20 -18 -116 -54 -176 -67 -21 -5 -46 -16 -56 -25 -9 -9 -27 -16 -38 -16 -11
0 -26 -6 -32 -14 -13 -15 -56 -26 -111 -29 -26 -2 -38 -8 -45 -25 -12 -27 -25
-29 -25 -2 0 11 5 20 11 20 6 0 8 8 4 19 -8 25 52 139 116 218 114 144 280
245 464 283 50 10 729 12 845 3z m-930 -433 c0 -5 -4 -10 -10 -10 -5 0 -10 5
-10 10 0 6 5 10 10 10 6 0 10 -4 10 -10z m325 -19 c104 -59 155 -146 155 -265
0 -41 -4 -77 -9 -80 -4 -3 -11 -18 -14 -33 -6 -30 -64 -97 -108 -125 -14 -9
-52 -24 -84 -34 -157 -45 -324 30 -385 172 -21 48 -28 178 -11 188 4 3 11 19
15 36 7 36 88 121 137 143 53 24 67 26 169 23 76 -2 103 -8 135 -25z m-841
-127 c3 -8 2 -12 -4 -9 -6 3 -10 10 -10 16 0 14 7 11 14 -7z m2460 -613 c190
-43 358 -206 419 -406 41 -137 42 -152 42 -715 l0 -545 -275 0 -275 0 -5 505
c-4 329 -10 518 -17 543 -6 22 -24 60 -40 85 -98 158 -347 144 -450 -26 -52
-86 -53 -93 -53 -621 l0 -491 -272 2 -273 3 -3 823 -2 822 275 0 275 0 0 -106
0 -106 71 76 c77 82 152 127 263 158 69 18 237 18 320 -1z m-1504 -33 c0 -7 0
-373 0 -813 1 -440 1 -806 0 -813 0 -10 -58 -12 -272 -10 l-273 3 -3 790 c-2
435 0 805 3 823 l6 32 269 0 c209 0 270 -3 270 -12z"/>
<path d="M85 2790 c-3 -5 -1 -10 4 -10 6 0 11 5 11 10 0 6 -2 10 -4 10 -3 0
-8 -4 -11 -10z"/>
</g>
</svg>
